<mxfile host="65bd71144e">
    <diagram id="bU5wkrCK7UCsBUNuiZlJ" name="Page-1">
        <mxGraphModel dx="1036" dy="807" grid="0" gridSize="10" guides="1" tooltips="1" connect="1" arrows="1" fold="1" page="1" pageScale="1" pageWidth="827" pageHeight="1169" background="none" math="0" shadow="0">
            <root>
                <mxCell id="0"/>
                <mxCell id="1" parent="0"/>
                <mxCell id="3" value="" style="rounded=0;whiteSpace=wrap;html=1;strokeColor=#99FF99;fillColor=default;" parent="1" vertex="1">
                    <mxGeometry x="176" y="1006" width="474" height="124" as="geometry"/>
                </mxCell>
                <mxCell id="4" value="&lt;font style=&quot;font-size: 16px&quot;&gt;Presentation&lt;/font&gt;" style="text;html=1;align=center;verticalAlign=middle;resizable=0;points=[];autosize=1;strokeColor=none;fillColor=none;" parent="1" vertex="1">
                    <mxGeometry x="550" y="978" width="100" height="18" as="geometry"/>
                </mxCell>
                <mxCell id="5" value="" style="rounded=0;whiteSpace=wrap;html=1;strokeColor=#99FF99;fillColor=default;" parent="1" vertex="1">
                    <mxGeometry x="174" y="643" width="474" height="302" as="geometry"/>
                </mxCell>
                <mxCell id="6" value="&lt;font style=&quot;font-size: 16px&quot;&gt;Business&lt;/font&gt;" style="text;html=1;align=center;verticalAlign=middle;resizable=0;points=[];autosize=1;strokeColor=none;fillColor=none;" parent="1" vertex="1">
                    <mxGeometry x="573" y="616" width="75" height="18" as="geometry"/>
                </mxCell>
                <mxCell id="9" value="" style="rounded=0;whiteSpace=wrap;html=1;strokeColor=#99FF99;fillColor=default;" parent="1" vertex="1">
                    <mxGeometry x="174" y="472" width="474" height="107" as="geometry"/>
                </mxCell>
                <mxCell id="10" value="&lt;font style=&quot;font-size: 16px&quot;&gt;External&lt;/font&gt;" style="text;html=1;align=center;verticalAlign=middle;resizable=0;points=[];autosize=1;strokeColor=none;fillColor=none;" parent="1" vertex="1">
                    <mxGeometry x="582" y="446" width="68" height="18" as="geometry"/>
                </mxCell>
                <mxCell id="20" style="edgeStyle=none;html=1;exitX=0.5;exitY=0;exitDx=0;exitDy=0;entryX=0.5;entryY=1;entryDx=0;entryDy=0;" parent="1" source="11" target="15" edge="1">
                    <mxGeometry relative="1" as="geometry"/>
                </mxCell>
                <mxCell id="11" value="HomePageCubit" style="rounded=1;whiteSpace=wrap;html=1;strokeColor=#99FFFF;" parent="1" vertex="1">
                    <mxGeometry x="351" y="1037" width="120" height="60" as="geometry"/>
                </mxCell>
                <mxCell id="15" value="ConvertCurrency" style="rounded=1;whiteSpace=wrap;html=1;strokeColor=#9999FF;" parent="1" vertex="1">
                    <mxGeometry x="351" y="857" width="120" height="60" as="geometry"/>
                </mxCell>
                <mxCell id="22" style="edgeStyle=none;html=1;exitX=0.5;exitY=1;exitDx=0;exitDy=0;" parent="1" edge="1">
                    <mxGeometry relative="1" as="geometry">
                        <mxPoint x="293.9999999999999" y="825" as="sourcePoint"/>
                    </mxGeometry>
                </mxCell>
                <mxCell id="23" style="edgeStyle=none;html=1;exitX=0.5;exitY=1;exitDx=0;exitDy=0;" parent="1" source="17" target="15" edge="1">
                    <mxGeometry relative="1" as="geometry"/>
                </mxCell>
                <mxCell id="17" value="ConvertCurrencyImpl" style="rounded=1;whiteSpace=wrap;html=1;strokeColor=#99FFFF;" parent="1" vertex="1">
                    <mxGeometry x="351" y="764" width="120" height="60" as="geometry"/>
                </mxCell>
                <mxCell id="29" style="edgeStyle=none;html=1;exitX=0.5;exitY=1;exitDx=0;exitDy=0;entryX=0.5;entryY=0;entryDx=0;entryDy=0;strokeColor=default;startArrow=classic;startFill=1;endArrow=none;endFill=0;" parent="1" source="24" target="17" edge="1">
                    <mxGeometry relative="1" as="geometry"/>
                </mxCell>
                <mxCell id="24" value="ConvertRateRepository" style="rounded=1;whiteSpace=wrap;html=1;strokeColor=#9999FF;" parent="1" vertex="1">
                    <mxGeometry x="343" y="678" width="136" height="55" as="geometry"/>
                </mxCell>
                <mxCell id="31" style="edgeStyle=none;html=1;exitX=0.5;exitY=1;exitDx=0;exitDy=0;entryX=0.5;entryY=0;entryDx=0;entryDy=0;" parent="1" source="26" target="24" edge="1">
                    <mxGeometry relative="1" as="geometry"/>
                </mxCell>
                <mxCell id="32" style="edgeStyle=none;html=1;exitX=0.5;exitY=0;exitDx=0;exitDy=0;entryX=0.5;entryY=1;entryDx=0;entryDy=0;" parent="1" source="26" target="27" edge="1">
                    <mxGeometry relative="1" as="geometry"/>
                </mxCell>
                <mxCell id="26" value="ConvertRateRepositoryImpl" style="rounded=1;whiteSpace=wrap;html=1;strokeColor=#99FFFF;" parent="1" vertex="1">
                    <mxGeometry x="324.75" y="495.5" width="172.5" height="60" as="geometry"/>
                </mxCell>
                <mxCell id="27" value="Hive" style="rounded=1;whiteSpace=wrap;html=1;strokeColor=#FF9999;" parent="1" vertex="1">
                    <mxGeometry x="333.5" y="354" width="155" height="60" as="geometry"/>
                </mxCell>
            </root>
        </mxGraphModel>
    </diagram>
</mxfile>